<svg width="2433" height="392" viewBox="0 0 2433 392" fill="none" xmlns="http://www.w3.org/2000/svg">
<rect x="60" y="38" width="300" height="300" rx="20" fill="#5C3ED2"/>
<path d="M404.75 289.5V254.5H408.25V289.5H404.75ZM414.986 289.5V254.5H418.786L437.261 283.175V254.5H440.761V289.5H436.986L418.486 260.825V289.5H414.986ZM446.773 289.5V254.5H450.573L469.048 283.175V254.5H472.548V289.5H468.773L450.273 260.825V289.5H446.773ZM494.811 290.15C492.444 290.15 490.219 289.683 488.136 288.75C486.052 287.8 484.219 286.492 482.636 284.825C481.052 283.158 479.811 281.233 478.911 279.05C478.011 276.85 477.561 274.5 477.561 272C477.561 269.5 478.011 267.158 478.911 264.975C479.811 262.775 481.052 260.842 482.636 259.175C484.219 257.508 486.052 256.208 488.136 255.275C490.219 254.325 492.444 253.85 494.811 253.85C497.194 253.85 499.427 254.325 501.511 255.275C503.594 256.208 505.427 257.508 507.011 259.175C508.594 260.842 509.827 262.775 510.711 264.975C511.611 267.158 512.061 269.5 512.061 272C512.061 274.5 511.611 276.85 510.711 279.05C509.827 281.233 508.594 283.158 507.011 284.825C505.427 286.492 503.594 287.8 501.511 288.75C499.427 289.683 497.194 290.15 494.811 290.15ZM494.811 286.65C496.727 286.65 498.511 286.267 500.161 285.5C501.827 284.717 503.286 283.65 504.536 282.3C505.802 280.95 506.786 279.392 507.486 277.625C508.202 275.858 508.561 273.983 508.561 272C508.561 270 508.202 268.117 507.486 266.35C506.769 264.567 505.777 263.008 504.511 261.675C503.261 260.325 501.802 259.267 500.136 258.5C498.486 257.733 496.711 257.35 494.811 257.35C492.894 257.35 491.102 257.742 489.436 258.525C487.786 259.292 486.327 260.35 485.061 261.7C483.811 263.05 482.827 264.608 482.111 266.375C481.411 268.142 481.061 270.017 481.061 272C481.061 274.017 481.419 275.908 482.136 277.675C482.852 279.442 483.836 281 485.086 282.35C486.352 283.7 487.811 284.758 489.461 285.525C491.127 286.275 492.911 286.65 494.811 286.65ZM527.229 289.5L514.529 254.5H518.229L529.329 285.1L540.479 254.5H544.179L531.454 289.5H527.229ZM555.813 254.5H560.163L572.913 289.5H569.188L566.463 282H549.538L546.813 289.5H543.088L555.813 254.5ZM550.813 278.5H565.163L557.988 258.8L550.813 278.5ZM600.055 254.5V258H588.055V289.5H584.555V258H572.58V254.5H600.055ZM605.824 289.5V254.5H609.324V289.5H605.824ZM632.311 290.15C629.944 290.15 627.719 289.683 625.636 288.75C623.552 287.8 621.719 286.492 620.136 284.825C618.552 283.158 617.311 281.233 616.411 279.05C615.511 276.85 615.061 274.5 615.061 272C615.061 269.5 615.511 267.158 616.411 264.975C617.311 262.775 618.552 260.842 620.136 259.175C621.719 257.508 623.552 256.208 625.636 255.275C627.719 254.325 629.944 253.85 632.311 253.85C634.694 253.85 636.927 254.325 639.011 255.275C641.094 256.208 642.927 257.508 644.511 259.175C646.094 260.842 647.327 262.775 648.211 264.975C649.111 267.158 649.561 269.5 649.561 272C649.561 274.5 649.111 276.85 648.211 279.05C647.327 281.233 646.094 283.158 644.511 284.825C642.927 286.492 641.094 287.8 639.011 288.75C636.927 289.683 634.694 290.15 632.311 290.15ZM632.311 286.65C634.227 286.65 636.011 286.267 637.661 285.5C639.327 284.717 640.786 283.65 642.036 282.3C643.302 280.95 644.286 279.392 644.986 277.625C645.702 275.858 646.061 273.983 646.061 272C646.061 270 645.702 268.117 644.986 266.35C644.269 264.567 643.277 263.008 642.011 261.675C640.761 260.325 639.302 259.267 637.636 258.5C635.986 257.733 634.211 257.35 632.311 257.35C630.394 257.35 628.602 257.742 626.936 258.525C625.286 259.292 623.827 260.35 622.561 261.7C621.311 263.05 620.327 264.608 619.611 266.375C618.911 268.142 618.561 270.017 618.561 272C618.561 274.017 618.919 275.908 619.636 277.675C620.352 279.442 621.336 281 622.586 282.35C623.852 283.7 625.311 284.758 626.961 285.525C628.627 286.275 630.411 286.65 632.311 286.65ZM654.635 289.5V254.5H658.435L676.91 283.175V254.5H680.41V289.5H676.635L658.135 260.825V289.5H654.635ZM698.434 289.5V254.5H702.234L720.709 283.175V254.5H724.209V289.5H720.434L701.934 260.825V289.5H698.434ZM730.221 289.5V254.5H751.521V258H733.721V269H748.446V272.5H733.721V286H751.521V289.5H730.221ZM768.391 289.5L755.691 254.5H759.391L770.491 285.1L781.641 254.5H785.341L772.616 289.5H768.391ZM789.84 289.5V254.5H811.14V258H793.34V269H808.065V272.5H793.34V286H811.14V289.5H789.84ZM816.988 289.5V254.5H828.863C830.73 254.5 832.413 254.958 833.913 255.875C835.413 256.775 836.605 258 837.488 259.55C838.372 261.083 838.813 262.808 838.813 264.725C838.813 266.442 838.463 268 837.763 269.4C837.063 270.8 836.105 271.958 834.888 272.875C833.688 273.792 832.33 274.4 830.813 274.7L839.363 289.5H835.313L826.888 274.975H820.488V289.5H816.988ZM820.488 271.475H828.563C829.797 271.475 830.922 271.175 831.938 270.575C832.972 269.958 833.788 269.133 834.388 268.1C835.005 267.05 835.313 265.867 835.313 264.55C835.313 263.233 835.005 262.058 834.388 261.025C833.788 259.975 832.972 259.15 831.938 258.55C830.922 257.933 829.797 257.625 828.563 257.625H820.488V271.475ZM869.106 290.15C867.239 290.15 865.431 289.858 863.681 289.275C861.948 288.692 860.431 287.858 859.131 286.775C857.831 285.692 856.914 284.4 856.381 282.9L859.656 281.675C860.023 282.708 860.689 283.6 861.656 284.35C862.639 285.083 863.781 285.65 865.081 286.05C866.398 286.45 867.739 286.65 869.106 286.65C870.706 286.65 872.198 286.383 873.581 285.85C874.964 285.317 876.081 284.575 876.931 283.625C877.781 282.658 878.206 281.525 878.206 280.225C878.206 278.908 877.764 277.825 876.881 276.975C875.998 276.125 874.856 275.458 873.456 274.975C872.073 274.475 870.623 274.092 869.106 273.825C866.723 273.408 864.581 272.842 862.681 272.125C860.798 271.408 859.306 270.4 858.206 269.1C857.106 267.783 856.556 266.05 856.556 263.9C856.556 261.883 857.139 260.133 858.306 258.65C859.473 257.167 861.006 256.017 862.906 255.2C864.823 254.383 866.889 253.975 869.106 253.975C870.923 253.975 872.698 254.258 874.431 254.825C876.164 255.392 877.689 256.217 879.006 257.3C880.339 258.383 881.298 259.708 881.881 261.275L878.556 262.475C878.189 261.425 877.514 260.533 876.531 259.8C875.564 259.05 874.431 258.483 873.131 258.1C871.831 257.7 870.489 257.5 869.106 257.5C867.523 257.483 866.039 257.75 864.656 258.3C863.289 258.833 862.181 259.583 861.331 260.55C860.481 261.5 860.056 262.617 860.056 263.9C860.056 265.4 860.448 266.558 861.231 267.375C862.031 268.175 863.114 268.775 864.481 269.175C865.848 269.575 867.389 269.933 869.106 270.25C871.339 270.633 873.414 271.233 875.331 272.05C877.248 272.85 878.789 273.925 879.956 275.275C881.123 276.608 881.706 278.258 881.706 280.225C881.706 282.225 881.123 283.975 879.956 285.475C878.789 286.958 877.248 288.108 875.331 288.925C873.431 289.742 871.356 290.15 869.106 290.15ZM887.74 289.5V254.5H891.24V286H907.315V289.5H887.74ZM912.838 289.5V254.5H934.138V258H916.338V269H931.063V272.5H916.338V286H934.138V289.5H912.838ZM939.986 289.5V254.5H961.286V258H943.486V269H958.211V272.5H943.486V286H961.286V289.5H939.986ZM967.135 289.5V254.5H978.335C980.201 254.5 981.885 254.958 983.385 255.875C984.885 256.775 986.076 258 986.96 259.55C987.86 261.083 988.31 262.808 988.31 264.725C988.31 266.658 987.851 268.4 986.935 269.95C986.035 271.5 984.826 272.725 983.31 273.625C981.81 274.525 980.151 274.975 978.335 274.975H970.635V289.5H967.135ZM970.635 271.475H978.06C979.293 271.475 980.418 271.175 981.435 270.575C982.468 269.958 983.285 269.133 983.885 268.1C984.501 267.05 984.81 265.867 984.81 264.55C984.81 263.233 984.501 262.058 983.885 261.025C983.285 259.975 982.468 259.15 981.435 258.55C980.418 257.933 979.293 257.625 978.06 257.625H970.635V271.475ZM1005.53 290.15C1003.66 290.15 1001.86 289.858 1000.11 289.275C998.373 288.692 996.857 287.858 995.557 286.775C994.257 285.692 993.34 284.4 992.807 282.9L996.082 281.675C996.448 282.708 997.115 283.6 998.082 284.35C999.065 285.083 1000.21 285.65 1001.51 286.05C1002.82 286.45 1004.16 286.65 1005.53 286.65C1007.13 286.65 1008.62 286.383 1010.01 285.85C1011.39 285.317 1012.51 284.575 1013.36 283.625C1014.21 282.658 1014.63 281.525 1014.63 280.225C1014.63 278.908 1014.19 277.825 1013.31 276.975C1012.42 276.125 1011.28 275.458 1009.88 274.975C1008.5 274.475 1007.05 274.092 1005.53 273.825C1003.15 273.408 1001.01 272.842 999.107 272.125C997.223 271.408 995.732 270.4 994.632 269.1C993.532 267.783 992.982 266.05 992.982 263.9C992.982 261.883 993.565 260.133 994.732 258.65C995.898 257.167 997.432 256.017 999.332 255.2C1001.25 254.383 1003.31 253.975 1005.53 253.975C1007.35 253.975 1009.12 254.258 1010.86 254.825C1012.59 255.392 1014.11 256.217 1015.43 257.3C1016.76 258.383 1017.72 259.708 1018.31 261.275L1014.98 262.475C1014.61 261.425 1013.94 260.533 1012.96 259.8C1011.99 259.05 1010.86 258.483 1009.56 258.1C1008.26 257.7 1006.91 257.5 1005.53 257.5C1003.95 257.483 1002.46 257.75 1001.08 258.3C999.715 258.833 998.607 259.583 997.757 260.55C996.907 261.5 996.482 262.617 996.482 263.9C996.482 265.4 996.873 266.558 997.657 267.375C998.457 268.175 999.54 268.775 1000.91 269.175C1002.27 269.575 1003.81 269.933 1005.53 270.25C1007.76 270.633 1009.84 271.233 1011.76 272.05C1013.67 272.85 1015.21 273.925 1016.38 275.275C1017.55 276.608 1018.13 278.258 1018.13 280.225C1018.13 282.225 1017.55 283.975 1016.38 285.475C1015.21 286.958 1013.67 288.108 1011.76 288.925C1009.86 289.742 1007.78 290.15 1005.53 290.15Z" fill="white"/>
<path d="M402 204L422.325 99H427.65L458.175 179.325L488.625 99H493.95L514.35 204H506.1L489.6 118.95L460.575 195.75H455.625L426.675 118.95L410.175 204H402ZM532.277 204V99H540.377V204H532.277ZM560.643 204V99H595.368C602.618 99 609.418 100.375 615.768 103.125C622.118 105.825 627.693 109.6 632.493 114.45C637.293 119.25 641.043 124.825 643.743 131.175C646.493 137.475 647.868 144.25 647.868 151.5C647.868 158.75 646.493 165.55 643.743 171.9C641.043 178.2 637.293 183.775 632.493 188.625C627.693 193.425 622.118 197.2 615.768 199.95C609.418 202.65 602.618 204 595.368 204H560.643ZM568.743 195.9H595.368C601.518 195.9 607.268 194.75 612.618 192.45C617.968 190.15 622.668 186.975 626.718 182.925C630.818 178.825 634.018 174.1 636.318 168.75C638.618 163.4 639.768 157.65 639.768 151.5C639.768 145.35 638.618 139.6 636.318 134.25C634.018 128.9 630.818 124.2 626.718 120.15C622.618 116.05 617.893 112.85 612.543 110.55C607.193 108.25 601.468 107.1 595.368 107.1H568.743V195.9ZM662.156 204V99H671.006L729.806 189.375V99H737.906V204H729.206L670.256 113.625V204H662.156ZM758.156 204V99H766.256V204H758.156ZM865.946 99V107.1H828.746V204H820.646V107.1H783.521V99H865.946ZM923.598 205.95C916.498 205.95 909.823 204.55 903.573 201.75C897.323 198.9 891.823 195 887.073 190.05C882.373 185.05 878.673 179.25 875.973 172.65C873.323 166.05 871.998 159 871.998 151.5C871.998 144 873.323 136.95 875.973 130.35C878.673 123.75 882.373 117.975 887.073 113.025C891.823 108.025 897.323 104.125 903.573 101.325C909.823 98.475 916.498 97.05 923.598 97.05C932.098 97.05 939.923 99.025 947.073 102.975C954.223 106.925 960.148 112.175 964.848 118.725L957.723 122.625C953.773 117.275 948.748 113.025 942.648 109.875C936.598 106.725 930.248 105.15 923.598 105.15C917.498 105.15 911.823 106.375 906.573 108.825C901.323 111.275 896.698 114.65 892.698 118.95C888.748 123.2 885.648 128.125 883.398 133.725C881.198 139.325 880.098 145.25 880.098 151.5C880.098 157.9 881.223 163.9 883.473 169.5C885.723 175.05 888.848 179.975 892.848 184.275C896.848 188.525 901.473 191.85 906.723 194.25C911.973 196.65 917.598 197.85 923.598 197.85C930.548 197.85 936.998 196.25 942.948 193.05C948.948 189.85 953.873 185.675 957.723 180.525L964.848 184.35C960.148 190.9 954.223 196.15 947.073 200.1C939.923 204 932.098 205.95 923.598 205.95ZM1089.45 204V99H1124.18C1131.43 99 1138.23 100.375 1144.58 103.125C1150.93 105.825 1156.5 109.6 1161.3 114.45C1166.1 119.25 1169.85 124.825 1172.55 131.175C1175.3 137.475 1176.68 144.25 1176.68 151.5C1176.68 158.75 1175.3 165.55 1172.55 171.9C1169.85 178.2 1166.1 183.775 1161.3 188.625C1156.5 193.425 1150.93 197.2 1144.58 199.95C1138.23 202.65 1131.43 204 1124.18 204H1089.45ZM1097.55 195.9H1124.18C1130.33 195.9 1136.08 194.75 1141.43 192.45C1146.78 190.15 1151.48 186.975 1155.53 182.925C1159.63 178.825 1162.83 174.1 1165.13 168.75C1167.43 163.4 1168.58 157.65 1168.58 151.5C1168.58 145.35 1167.43 139.6 1165.13 134.25C1162.83 128.9 1159.63 124.2 1155.53 120.15C1151.43 116.05 1146.7 112.85 1141.35 110.55C1136 108.25 1130.28 107.1 1124.18 107.1H1097.55V195.9ZM1190.96 204V99H1254.26V107.1H1199.06V143.7H1245.26V151.8H1199.06V195.9H1254.26V204H1190.96ZM1345.12 204V99H1353.22V204H1345.12ZM1373.48 204V99H1382.33L1441.13 189.375V99H1449.23V204H1440.53L1381.58 113.625V204H1373.48ZM1467.23 204V99H1476.08L1534.88 189.375V99H1542.98V204H1534.28L1475.33 113.625V204H1467.23ZM1609.73 205.95C1602.63 205.95 1595.96 204.55 1589.71 201.75C1583.46 198.9 1577.96 194.975 1573.21 189.975C1568.46 184.975 1564.73 179.2 1562.03 172.65C1559.33 166.05 1557.98 159 1557.98 151.5C1557.98 144 1559.33 136.975 1562.03 130.425C1564.73 123.825 1568.46 118.025 1573.21 113.025C1577.96 108.025 1583.46 104.125 1589.71 101.325C1595.96 98.475 1602.63 97.05 1609.73 97.05C1616.88 97.05 1623.58 98.475 1629.83 101.325C1636.08 104.125 1641.58 108.025 1646.33 113.025C1651.08 118.025 1654.78 123.825 1657.43 130.425C1660.13 136.975 1661.48 144 1661.48 151.5C1661.48 159 1660.13 166.05 1657.43 172.65C1654.78 179.2 1651.08 184.975 1646.33 189.975C1641.58 194.975 1636.08 198.9 1629.83 201.75C1623.58 204.55 1616.88 205.95 1609.73 205.95ZM1609.73 197.85C1615.83 197.85 1621.51 196.625 1626.76 194.175C1632.06 191.725 1636.68 188.375 1640.63 184.125C1644.63 179.825 1647.76 174.875 1650.01 169.275C1652.26 163.675 1653.38 157.75 1653.38 151.5C1653.38 145.15 1652.23 139.175 1649.93 133.575C1647.68 127.975 1644.56 123.05 1640.56 118.8C1636.56 114.55 1631.93 111.225 1626.68 108.825C1621.43 106.375 1615.78 105.15 1609.73 105.15C1603.63 105.15 1597.93 106.375 1592.63 108.825C1587.38 111.275 1582.76 114.65 1578.76 118.95C1574.81 123.2 1571.71 128.125 1569.46 133.725C1567.21 139.325 1566.08 145.25 1566.08 151.5C1566.08 157.85 1567.21 163.825 1569.46 169.425C1571.76 175.025 1574.91 179.975 1578.91 184.275C1582.91 188.525 1587.53 191.85 1592.78 194.25C1598.08 196.65 1603.73 197.85 1609.73 197.85ZM1707.04 204L1668.94 99H1677.57L1711.77 193.35L1746.12 99H1754.67L1716.49 204H1707.04ZM1789.08 99H1799.73L1837.98 204H1829.35L1820.73 180.3H1768.15L1759.53 204H1750.9L1789.08 99ZM1771.08 172.2H1817.73L1794.4 108.225L1771.08 172.2ZM1919.76 99V107.1H1882.56V204H1874.46V107.1H1837.33V99H1919.76ZM1937.06 204V99H1945.16V204H1937.06ZM2014.18 205.95C2007.08 205.95 2000.4 204.55 1994.15 201.75C1987.9 198.9 1982.4 194.975 1977.65 189.975C1972.9 184.975 1969.18 179.2 1966.48 172.65C1963.78 166.05 1962.43 159 1962.43 151.5C1962.43 144 1963.78 136.975 1966.48 130.425C1969.18 123.825 1972.9 118.025 1977.65 113.025C1982.4 108.025 1987.9 104.125 1994.15 101.325C2000.4 98.475 2007.08 97.05 2014.18 97.05C2021.33 97.05 2028.03 98.475 2034.28 101.325C2040.53 104.125 2046.03 108.025 2050.78 113.025C2055.53 118.025 2059.23 123.825 2061.88 130.425C2064.58 136.975 2065.93 144 2065.93 151.5C2065.93 159 2064.58 166.05 2061.88 172.65C2059.23 179.2 2055.53 184.975 2050.78 189.975C2046.03 194.975 2040.53 198.9 2034.28 201.75C2028.03 204.55 2021.33 205.95 2014.18 205.95ZM2014.18 197.85C2020.28 197.85 2025.95 196.625 2031.2 194.175C2036.5 191.725 2041.13 188.375 2045.08 184.125C2049.08 179.825 2052.2 174.875 2054.45 169.275C2056.7 163.675 2057.83 157.75 2057.83 151.5C2057.83 145.15 2056.68 139.175 2054.38 133.575C2052.13 127.975 2049 123.05 2045 118.8C2041 114.55 2036.38 111.225 2031.13 108.825C2025.88 106.375 2020.23 105.15 2014.18 105.15C2008.08 105.15 2002.38 106.375 1997.08 108.825C1991.83 111.275 1987.2 114.65 1983.2 118.95C1979.25 123.2 1976.15 128.125 1973.9 133.725C1971.65 139.325 1970.53 145.25 1970.53 151.5C1970.53 157.85 1971.65 163.825 1973.9 169.425C1976.2 175.025 1979.35 179.975 1983.35 184.275C1987.35 188.525 1991.98 191.85 1997.23 194.25C2002.53 196.65 2008.18 197.85 2014.18 197.85ZM2081.59 204V99H2090.44L2149.24 189.375V99H2157.34V204H2148.64L2089.69 113.625V204H2081.59ZM2211.71 205.95C2206.16 205.95 2200.79 205.1 2195.59 203.4C2190.39 201.65 2185.84 199.2 2181.94 196.05C2178.09 192.85 2175.39 189.025 2173.84 184.575L2181.41 181.725C2182.61 185.125 2184.79 188.05 2187.94 190.5C2191.14 192.9 2194.81 194.725 2198.96 195.975C2203.16 197.225 2207.41 197.85 2211.71 197.85C2216.81 197.85 2221.59 196.975 2226.04 195.225C2230.49 193.475 2234.09 191.05 2236.84 187.95C2239.59 184.8 2240.96 181.075 2240.96 176.775C2240.96 172.475 2239.54 168.95 2236.69 166.2C2233.84 163.4 2230.16 161.2 2225.66 159.6C2221.21 157.95 2216.56 156.675 2211.71 155.775C2204.61 154.525 2198.26 152.875 2192.66 150.825C2187.06 148.725 2182.61 145.775 2179.31 141.975C2176.06 138.175 2174.44 133.075 2174.44 126.675C2174.44 120.725 2176.16 115.575 2179.61 111.225C2183.11 106.875 2187.69 103.5 2193.34 101.1C2198.99 98.7 2205.11 97.5 2211.71 97.5C2217.06 97.5 2222.31 98.35 2227.46 100.05C2232.61 101.7 2237.16 104.125 2241.11 107.325C2245.06 110.525 2247.91 114.425 2249.66 119.025L2241.94 121.8C2240.74 118.35 2238.56 115.425 2235.41 113.025C2232.26 110.625 2228.59 108.8 2224.39 107.55C2220.24 106.3 2216.01 105.675 2211.71 105.675C2206.56 105.625 2201.76 106.5 2197.31 108.3C2192.91 110.05 2189.34 112.5 2186.59 115.65C2183.89 118.8 2182.54 122.475 2182.54 126.675C2182.54 131.525 2183.81 135.275 2186.36 137.925C2188.91 140.575 2192.39 142.575 2196.79 143.925C2201.19 145.225 2206.16 146.4 2211.71 147.45C2218.31 148.6 2224.44 150.375 2230.09 152.775C2235.79 155.125 2240.36 158.275 2243.81 162.225C2247.31 166.125 2249.06 170.975 2249.06 176.775C2249.06 182.675 2247.31 187.825 2243.81 192.225C2240.36 196.575 2235.81 199.95 2230.16 202.35C2224.51 204.75 2218.36 205.95 2211.71 205.95Z" fill="white"/>
<rect x="1080" y="99" width="10" height="8" fill="white"/>
<rect x="551" y="99" width="10" height="8" fill="white"/>
<rect x="1003" y="134" width="60" height="54" fill="#5C3ED2"/>
<path fill-rule="evenodd" clip-rule="evenodd" d="M1075 161.401C1075 180.496 1065.96 197.293 1052.28 207C1050.43 202.155 1045.24 198.666 1039.12 198.666C1034.69 198.666 1030.73 200.505 1028.19 203.366C1026.02 202.114 1023.42 201.386 1020.62 201.386C1019.71 201.386 1018.81 201.464 1017.94 201.614C1016.02 196.883 1010.9 193.498 1004.87 193.498C1000.96 193.498 997.43 194.925 994.908 197.222C992.79 196.068 990.295 195.402 987.624 195.402C987.084 195.402 986.55 195.429 986.026 195.482C979.128 186.156 975 174.303 975 161.401C975 131.356 997.386 107 1025 107C1052.61 107 1075 131.356 1075 161.401ZM1032.65 181.671L1045.38 167.963L1032.41 154.595L1027.55 154.653L1040.51 168.016L1027.79 181.719L1032.65 181.671ZM1039.52 168.033L1026.79 181.738L1021.93 181.785L1034.65 168.086L1021.69 154.725L1026.55 154.662L1039.52 168.033ZM1017.1 141.134L1004.37 154.839L1017.34 168.21L1022.2 168.153L1009.24 154.786L1021.96 141.087L1017.1 141.134ZM1010.23 154.769L1022.96 141.064L1027.82 141.017L1015.1 154.716L1028.06 168.077L1023.2 168.14L1010.23 154.769Z" fill="#9B9898"/>
<path fill-rule="evenodd" clip-rule="evenodd" d="M1075 161.401C1075 180.496 1065.96 197.293 1052.28 207C1050.43 202.155 1045.24 198.666 1039.12 198.666C1034.69 198.666 1030.73 200.505 1028.19 203.366C1026.02 202.114 1023.42 201.386 1020.62 201.386C1019.71 201.386 1018.81 201.464 1017.94 201.614C1016.02 196.883 1010.9 193.498 1004.87 193.498C1000.96 193.498 997.43 194.925 994.908 197.222C992.79 196.068 990.295 195.402 987.624 195.402C987.084 195.402 986.55 195.429 986.026 195.482C979.128 186.156 975 174.303 975 161.401C975 131.356 997.386 107 1025 107C1052.61 107 1075 131.356 1075 161.401ZM1032.65 181.671L1045.38 167.963L1032.41 154.595L1027.55 154.653L1040.51 168.016L1027.79 181.719L1032.65 181.671ZM1039.52 168.033L1026.79 181.738L1021.93 181.785L1034.65 168.086L1021.69 154.725L1026.55 154.662L1039.52 168.033ZM1017.1 141.134L1004.37 154.839L1017.34 168.21L1022.2 168.153L1009.24 154.786L1021.96 141.087L1017.1 141.134ZM1010.23 154.769L1022.96 141.064L1027.82 141.017L1015.1 154.716L1028.06 168.077L1023.2 168.14L1010.23 154.769Z" fill="#9B9898"/>
<ellipse cx="4.07999" cy="3.75008" rx="4.07999" ry="3.75008" transform="matrix(-0.0142104 0.999899 -0.999858 -0.0168213 1041.72 145.645)" fill="#989898"/>
<path d="M1037.72 153.517C1038.71 153.534 1039.36 152.997 1040.02 152.48C1040.69 151.667 1041 150.819 1041.13 149.727C1041.14 148.645 1040.83 147.614 1040.14 146.837C1039.41 146.184 1038.91 145.846 1037.91 145.829L1037.9 145.849L1038.05 145.886L1038.22 145.949C1039.63 146.452 1040.03 147.248 1040.34 147.916C1040.65 148.601 1040.68 148.818 1040.67 149.653C1040.66 150.488 1040.47 150.952 1040.04 151.706C1039.76 152.083 1039.33 152.701 1038.57 153.123L1038.35 153.256L1038.19 153.335L1037.94 153.439L1037.72 153.517Z" fill="#9B9898"/>
<path fill-rule="evenodd" clip-rule="evenodd" d="M1041.56 110.081C1035.37 107.711 1028.81 106.691 1022.25 107.081L1026.12 108.332L1028.5 109.012L1031.25 110.081L1033.87 111.188L1036.25 112.412L1038.75 114.044L1041.25 115.948L1043.62 117.852L1045.5 119.62L1048.25 122.476L1050 124.924L1051.87 128.052L1054 132.404L1054.55 133.697C1054.84 133.565 1055.16 133.492 1055.5 133.492C1056.88 133.492 1058 134.71 1058 136.212C1058 137.289 1057.43 138.219 1056.59 138.66L1058.35 143.556L1058.61 144.82C1058.82 144.711 1059.03 144.616 1059.25 144.536C1061.88 143.604 1064.7 145.163 1065.56 148.019C1066.42 150.875 1064.98 153.947 1062.36 154.879C1061.69 155.118 1061 155.193 1060.34 155.126L1060.52 156.476L1060.62 159.876L1060.62 162.053V163.821L1060.37 168.309L1059.6 175.381L1058.35 181.093L1056.25 186.805L1054.66 190.838C1055.61 191.42 1056.32 192.449 1056.52 193.712C1056.87 195.934 1055.49 198.04 1053.45 198.417C1052.51 198.591 1051.59 198.368 1050.84 197.86L1050.12 198.773L1049 200.133L1047.84 201.381C1049.86 202.824 1051.42 204.759 1052.27 206.98C1055.93 204.384 1059.28 201.27 1062.21 197.714C1066.59 192.395 1069.97 186.188 1072.14 179.449C1074.32 172.709 1075.26 165.569 1074.9 158.436C1074.54 151.302 1072.9 144.315 1070.06 137.874C1067.22 131.433 1063.24 125.663 1058.35 120.894C1053.46 116.125 1047.76 112.451 1041.56 110.081Z" fill="#989898"/>
<ellipse cx="1018.23" cy="118.56" rx="7.72904" ry="8.56815" fill="#989898"/>
<path d="M1025.54 118.883C1025.54 116.611 1024.5 115.152 1023.5 113.664C1021.94 112.16 1020.32 111.467 1018.25 111.216C1016.2 111.216 1014.26 111.96 1012.81 113.567C1011.6 115.252 1010.97 116.418 1010.97 118.69L1011.01 118.712L1011.07 118.369L1011.19 117.969C1012.1 114.746 1013.59 113.8 1014.85 113.076C1016.13 112.333 1016.54 112.26 1018.13 112.26C1019.71 112.26 1020.59 112.667 1022.03 113.628C1022.76 114.256 1023.94 115.227 1024.77 116.941L1025.02 117.455L1025.18 117.798L1025.38 118.369L1025.54 118.883Z" fill="#989898"/>
<ellipse cx="5.01286" cy="5.42825" rx="5.01286" ry="5.42825" transform="matrix(-0.983366 0.181634 -0.154165 -0.988045 1008.03 186)" fill="#989898"/>
<path d="M997.554 182.093C997.776 183.516 998.584 184.329 999.368 185.143C1000.51 185.9 1001.63 186.146 1002.97 186.058C1004.28 185.817 1005.43 185.098 1006.19 183.921C1006.8 182.724 1007.09 181.92 1006.86 180.498L1006.84 180.489L1006.83 180.711L1006.8 180.975C1006.53 183.099 1005.67 183.867 1004.94 184.469C1004.19 185.085 1003.87 185.121 1002.86 185.307C1001.85 185.494 1001.32 185.401 1000.3 184.97C999.781 184.662 998.93 184.193 998.237 183.218L998.022 182.926L997.89 182.73L997.703 182.397L997.554 182.093Z" fill="#989898"/>
<ellipse cx="4.07999" cy="3.75008" rx="4.07999" ry="3.75008" transform="matrix(-0.0142104 0.999899 -0.999858 -0.0168213 1041.72 145.645)" fill="#7C7C7C"/>
<path d="M1037.72 153.517C1038.71 153.534 1039.36 152.997 1040.02 152.48C1040.69 151.667 1041 150.819 1041.13 149.727C1041.14 148.645 1040.83 147.614 1040.14 146.837C1039.41 146.184 1038.91 145.846 1037.91 145.829L1037.9 145.849L1038.05 145.886L1038.22 145.949C1039.63 146.452 1040.03 147.248 1040.34 147.916C1040.65 148.601 1040.68 148.818 1040.67 149.653C1040.66 150.488 1040.47 150.952 1040.04 151.706C1039.76 152.083 1039.33 152.701 1038.57 153.123L1038.35 153.256L1038.19 153.335L1037.94 153.439L1037.72 153.517Z" fill="#989898"/>
<path fill-rule="evenodd" clip-rule="evenodd" d="M1041.56 110.081C1035.37 107.711 1028.81 106.691 1022.25 107.081L1026.12 108.332L1028.5 109.012L1031.25 110.081L1033.87 111.188L1036.25 112.412L1038.75 114.044L1041.25 115.948L1043.62 117.852L1045.5 119.62L1048.25 122.476L1050 124.924L1051.87 128.052L1054 132.404L1054.55 133.697C1054.84 133.565 1055.16 133.492 1055.5 133.492C1056.88 133.492 1058 134.71 1058 136.212C1058 137.289 1057.43 138.219 1056.59 138.66L1058.35 143.556L1058.61 144.82C1058.81 144.711 1059.03 144.616 1059.25 144.536C1061.88 143.604 1064.7 145.163 1065.56 148.019C1066.42 150.875 1064.98 153.947 1062.36 154.879C1061.69 155.118 1061 155.193 1060.34 155.126L1060.52 156.476L1060.62 159.876L1060.62 162.053V163.821L1060.37 168.309L1059.6 175.381L1058.35 181.093L1056.25 186.805L1054.66 190.838C1055.61 191.42 1056.32 192.449 1056.52 193.712C1056.87 195.934 1055.49 198.04 1053.45 198.417C1052.51 198.591 1051.59 198.368 1050.84 197.86L1050.12 198.773L1049 200.133L1047.84 201.381C1049.86 202.824 1051.42 204.759 1052.27 206.98C1055.93 204.384 1059.27 201.27 1062.2 197.714C1066.59 192.395 1069.96 186.188 1072.14 179.449C1074.32 172.709 1075.26 165.569 1074.9 158.436C1074.54 151.302 1072.9 144.315 1070.06 137.874C1067.22 131.433 1063.24 125.663 1058.35 120.894C1053.46 116.125 1047.76 112.451 1041.56 110.081Z" fill="#7C7C7C"/>
<ellipse cx="1018.23" cy="118.56" rx="7.72904" ry="8.56815" fill="#7C7C7C"/>
<path d="M1025.54 118.883C1025.54 116.611 1024.5 115.152 1023.5 113.664C1021.94 112.16 1020.32 111.467 1018.25 111.216C1016.2 111.216 1014.26 111.96 1012.81 113.567C1011.6 115.252 1010.97 116.418 1010.97 118.69L1011.01 118.712L1011.07 118.369L1011.19 117.969C1012.1 114.746 1013.59 113.8 1014.85 113.076C1016.13 112.333 1016.54 112.26 1018.13 112.26C1019.71 112.26 1020.59 112.667 1022.03 113.628C1022.76 114.256 1023.94 115.227 1024.77 116.941L1025.02 117.455L1025.18 117.798L1025.38 118.369L1025.54 118.883Z" fill="#989898"/>
<ellipse cx="5.01286" cy="5.42825" rx="5.01286" ry="5.42825" transform="matrix(-0.983366 0.181634 -0.154165 -0.988045 1008.03 186)" fill="#7C7C7C"/>
<path d="M997.554 182.093C997.776 183.516 998.584 184.329 999.368 185.143C1000.51 185.9 1001.63 186.146 1002.97 186.058C1004.28 185.817 1005.43 185.098 1006.19 183.921C1006.8 182.724 1007.09 181.92 1006.86 180.498L1006.84 180.489L1006.83 180.711L1006.8 180.975C1006.53 183.099 1005.67 183.867 1004.94 184.469C1004.19 185.085 1003.87 185.121 1002.86 185.307C1001.85 185.494 1001.32 185.401 1000.3 184.97C999.781 184.662 998.93 184.193 998.237 183.218L998.022 182.926L997.89 182.73L997.703 182.397L997.554 182.093Z" fill="#989898"/>
<path d="M1058.9 145.541C1057.87 145.676 1056.88 146.151 1056.28 147.13C1055.67 148.108 1055.42 149.359 1055.58 150.608C1055.75 151.857 1056.31 153.001 1057.15 153.788C1057.99 154.575 1059.05 154.782 1060.07 154.647L1059.62 154.579L1059.46 154.559L1059.27 154.514C1058.37 154.295 1057.26 153.241 1056.83 152.519C1056.39 151.779 1056.31 151.525 1056.18 150.561C1056.05 149.597 1056.12 149.1 1056.44 148.164C1056.66 147.687 1057.01 146.907 1057.71 146.303L1057.92 146.116L1058.07 146.001L1058.31 145.842L1058.53 145.717L1058.9 145.541Z" fill="#B0B0B0"/>
<path d="M1058.9 145.541C1057.87 145.676 1056.88 146.151 1056.28 147.13C1055.67 148.108 1055.42 149.359 1055.58 150.608C1055.75 151.857 1056.31 153.001 1057.15 153.788C1057.99 154.575 1059.05 154.782 1060.07 154.647L1059.62 154.579L1059.46 154.559L1059.27 154.514C1058.37 154.295 1057.26 153.241 1056.83 152.519C1056.39 151.779 1056.31 151.525 1056.18 150.561C1056.05 149.597 1056.12 149.1 1056.44 148.164C1056.66 147.687 1057.01 146.907 1057.71 146.303L1057.92 146.116L1058.07 146.001L1058.31 145.842L1058.53 145.717L1058.9 145.541Z" fill="#B0B0B0"/>
<path d="M1058.9 145.541C1057.87 145.676 1056.88 146.151 1056.28 147.13C1055.67 148.108 1055.42 149.359 1055.58 150.608C1055.75 151.857 1056.31 153.001 1057.15 153.788C1057.99 154.575 1059.05 154.782 1060.07 154.647L1059.62 154.579L1059.46 154.559L1059.27 154.514C1058.37 154.295 1057.26 153.241 1056.83 152.519C1056.39 151.779 1056.31 151.525 1056.18 150.561C1056.05 149.597 1056.12 149.1 1056.44 148.164C1056.66 147.687 1057.01 146.907 1057.71 146.303L1057.92 146.116L1058.07 146.001L1058.31 145.842L1058.53 145.717L1058.9 145.541Z" fill="#B0B0B0"/>
<path d="M1058.9 145.541C1057.87 145.676 1056.88 146.151 1056.28 147.13C1055.67 148.108 1055.42 149.359 1055.58 150.608C1055.75 151.857 1056.31 153.001 1057.15 153.788C1057.99 154.575 1059.05 154.782 1060.07 154.647L1059.62 154.579L1059.46 154.559L1059.27 154.514C1058.37 154.295 1057.26 153.241 1056.83 152.519C1056.39 151.779 1056.31 151.525 1056.18 150.561C1056.05 149.597 1056.12 149.1 1056.44 148.164C1056.66 147.687 1057.01 146.907 1057.71 146.303L1057.92 146.116L1058.07 146.001L1058.31 145.842L1058.53 145.717L1058.9 145.541Z" fill="#B0B0B0"/>
<path d="M1055.09 191.908C1054.46 191.372 1053.66 191.023 1052.79 191.143C1051.92 191.262 1051.1 191.726 1050.5 192.431C1049.91 193.136 1049.59 194.024 1049.62 194.902C1049.64 195.779 1050.11 196.497 1050.74 197.033L1050.53 196.733L1050.45 196.63L1050.37 196.496C1050.01 195.866 1049.97 194.697 1050.14 194.094C1050.3 193.476 1050.39 193.302 1050.85 192.758C1051.31 192.214 1051.62 192.013 1052.31 191.743C1052.7 191.643 1053.31 191.464 1054.03 191.585L1054.25 191.617L1054.39 191.645L1054.61 191.708L1054.8 191.776L1055.09 191.908Z" fill="#B0B0B0"/>
<path d="M1055.09 191.908C1054.46 191.372 1053.66 191.023 1052.79 191.143C1051.92 191.262 1051.1 191.726 1050.5 192.431C1049.91 193.136 1049.59 194.024 1049.62 194.902C1049.64 195.779 1050.11 196.497 1050.74 197.033L1050.53 196.733L1050.45 196.63L1050.37 196.496C1050.01 195.866 1049.97 194.697 1050.14 194.094C1050.3 193.476 1050.39 193.302 1050.85 192.758C1051.31 192.214 1051.62 192.013 1052.31 191.743C1052.7 191.643 1053.31 191.464 1054.03 191.585L1054.25 191.617L1054.39 191.645L1054.61 191.708L1054.8 191.776L1055.09 191.908Z" fill="#B0B0B0"/>
<path d="M1055.09 191.908C1054.46 191.372 1053.66 191.023 1052.79 191.143C1051.92 191.262 1051.1 191.726 1050.5 192.431C1049.91 193.136 1049.59 194.024 1049.62 194.902C1049.64 195.779 1050.11 196.497 1050.74 197.033L1050.53 196.733L1050.45 196.63L1050.37 196.496C1050.01 195.866 1049.97 194.697 1050.14 194.094C1050.3 193.476 1050.39 193.302 1050.85 192.758C1051.31 192.214 1051.62 192.013 1052.31 191.743C1052.7 191.643 1053.31 191.464 1054.03 191.585L1054.25 191.617L1054.39 191.645L1054.61 191.708L1054.8 191.776L1055.09 191.908Z" fill="#B0B0B0"/>
<path d="M1055.09 191.908C1054.46 191.372 1053.66 191.023 1052.79 191.143C1051.92 191.262 1051.1 191.726 1050.5 192.431C1049.91 193.136 1049.59 194.024 1049.62 194.902C1049.64 195.779 1050.11 196.497 1050.74 197.033L1050.53 196.733L1050.45 196.63L1050.37 196.496C1050.01 195.866 1049.97 194.697 1050.14 194.094C1050.3 193.476 1050.39 193.302 1050.85 192.758C1051.31 192.214 1051.62 192.013 1052.31 191.743C1052.7 191.643 1053.31 191.464 1054.03 191.585L1054.25 191.617L1054.39 191.645L1054.61 191.708L1054.8 191.776L1055.09 191.908Z" fill="#B0B0B0"/>
<path d="M1054.21 134.217C1053.72 134.442 1053.29 134.83 1053.14 135.409C1052.98 135.987 1053.05 136.645 1053.32 137.238C1053.59 137.831 1054.05 138.311 1054.59 138.571C1055.12 138.832 1055.68 138.771 1056.17 138.547L1055.94 138.583L1055.85 138.598L1055.75 138.605C1055.27 138.634 1054.55 138.284 1054.23 137.992C1053.9 137.694 1053.82 137.581 1053.61 137.123C1053.4 136.665 1053.36 136.408 1053.38 135.895C1053.42 135.625 1053.47 135.186 1053.73 134.778L1053.81 134.652L1053.86 134.574L1053.96 134.457L1054.05 134.362L1054.21 134.217Z" fill="#B0B0B0"/>
<path d="M1054.21 134.217C1053.72 134.442 1053.29 134.83 1053.14 135.409C1052.98 135.987 1053.05 136.645 1053.32 137.238C1053.59 137.831 1054.05 138.311 1054.59 138.571C1055.12 138.832 1055.68 138.771 1056.17 138.547L1055.94 138.583L1055.85 138.598L1055.75 138.605C1055.27 138.634 1054.55 138.284 1054.23 137.992C1053.9 137.694 1053.82 137.581 1053.61 137.123C1053.4 136.665 1053.36 136.408 1053.38 135.895C1053.42 135.625 1053.47 135.186 1053.73 134.778L1053.81 134.652L1053.86 134.574L1053.96 134.457L1054.05 134.362L1054.21 134.217Z" fill="#B0B0B0"/>
<path d="M1054.21 134.217C1053.72 134.442 1053.29 134.83 1053.14 135.409C1052.98 135.987 1053.05 136.645 1053.32 137.238C1053.59 137.831 1054.05 138.311 1054.59 138.571C1055.12 138.832 1055.68 138.771 1056.17 138.547L1055.94 138.583L1055.85 138.598L1055.75 138.605C1055.27 138.634 1054.55 138.284 1054.23 137.992C1053.9 137.694 1053.82 137.581 1053.61 137.123C1053.4 136.665 1053.36 136.408 1053.38 135.895C1053.42 135.625 1053.47 135.186 1053.73 134.778L1053.81 134.652L1053.86 134.574L1053.96 134.457L1054.05 134.362L1054.21 134.217Z" fill="#B0B0B0"/>
<path d="M1054.21 134.217C1053.72 134.442 1053.29 134.83 1053.14 135.409C1052.98 135.987 1053.05 136.645 1053.32 137.238C1053.59 137.831 1054.05 138.311 1054.59 138.571C1055.12 138.832 1055.68 138.771 1056.17 138.547L1055.94 138.583L1055.85 138.598L1055.75 138.605C1055.27 138.634 1054.55 138.284 1054.23 137.992C1053.9 137.694 1053.82 137.581 1053.61 137.123C1053.4 136.665 1053.36 136.408 1053.38 135.895C1053.42 135.625 1053.47 135.186 1053.73 134.778L1053.81 134.652L1053.86 134.574L1053.96 134.457L1054.05 134.362L1054.21 134.217Z" fill="#B0B0B0"/>
<rect x="115" y="115" width="190" height="116" rx="16" fill="white"/>
<rect x="122.773" y="121.628" width="174.455" height="102.743" rx="8" fill="#5C3ED2"/>
<path fill-rule="evenodd" clip-rule="evenodd" d="M192.727 247.571H121.214C117.782 247.571 115 250.354 115 253.786C115 257.218 117.782 260 121.214 260H298.786C302.218 260 305 257.218 305 253.786C305 250.354 302.218 247.571 298.786 247.571H227.273V250.886H192.727V247.571Z" fill="white"/>
<path fill-rule="evenodd" clip-rule="evenodd" d="M221.741 205.926L245.191 183.66L221.303 161.938L212.341 162.03L236.223 183.747L212.784 206.003L221.741 205.926Z" fill="white"/>
<path fill-rule="evenodd" clip-rule="evenodd" d="M210.939 206.04L234.389 183.774L210.501 162.052L201.55 162.155L225.421 183.861L201.981 206.117L210.939 206.04Z" fill="white"/>
<path fill-rule="evenodd" clip-rule="evenodd" d="M199.987 140.074L176.537 162.34L200.426 184.062L209.388 183.97L185.505 162.253L208.945 139.997L199.987 140.074Z" fill="white"/>
<path fill-rule="evenodd" clip-rule="evenodd" d="M210.789 139.96L187.339 162.225L211.228 183.948L220.178 183.845L196.308 162.139L219.747 139.883L210.789 139.96Z" fill="white"/>
</svg>
